<?xml version="1.0" standalone="no"?>
<!DOCTYPE svg PUBLIC "-//W3C//DTD SVG 20010904//EN"
 "http://www.w3.org/TR/2001/REC-SVG-20010904/DTD/svg10.dtd">
<svg version="1.0" xmlns="http://www.w3.org/2000/svg"
 width="2382.000000pt" height="3368.000000pt" viewBox="0 0 2382.000000 3368.000000"
 preserveAspectRatio="xMidYMid meet">

<g transform="translate(0.000000,3368.000000) scale(0.100000,-0.100000)"
fill="#000000" stroke="none">
<path d="M2231 18359 c-373 -42 -740 -195 -1025 -428 -104 -85 -271 -263 -346
-369 -166 -234 -273 -483 -333 -777 -19 -96 -22 -140 -22 -355 1 -228 3 -254
28 -371 130 -611 510 -1103 1052 -1364 960 -463 2104 -72 2579 880 267 536
268 1169 2 1710 -280 570 -803 955 -1436 1060 -117 19 -386 27 -499 14z m435
-504 c469 -81 864 -396 1051 -838 48 -115 91 -286 104 -423 27 -279 -46 -594
-197 -844 -30 -49 -54 -93 -54 -97 0 -5 -31 -43 -69 -86 -499 -564 -1307 -654
-1897 -211 -154 116 -320 315 -407 490 -46 91 -100 247 -123 354 -27 121 -27
429 0 550 78 356 273 659 557 862 162 117 375 208 567 242 106 20 358 20 468
1z"/>
<path d="M1357 17278 c-170 -227 -259 -502 -259 -803 -1 -277 66 -506 214
-737 l50 -78 66 37 c37 20 122 67 188 104 67 37 206 110 310 162 104 53 253
129 332 170 l144 74 -244 133 c-134 73 -247 133 -253 133 -5 0 -92 -44 -193
-97 -149 -79 -186 -95 -197 -86 -12 10 -15 49 -15 209 0 212 6 241 53 241 13
0 437 -225 942 -501 506 -276 946 -514 977 -530 l57 -29 51 84 c59 99 92 169
131 285 121 356 77 782 -116 1111 l-46 79 -37 -16 c-20 -8 -125 -59 -232 -113
-107 -54 -316 -153 -465 -220 -148 -68 -274 -126 -278 -130 -5 -4 93 -71 218
-150 l225 -142 191 101 c105 56 196 101 204 101 35 0 38 -25 31 -248 -8 -227
-15 -262 -54 -262 -10 0 -70 31 -133 68 -63 37 -458 273 -879 524 -691 412
-942 558 -955 558 -2 0 -15 -15 -28 -32z"/>
</g>
</svg>
