<?xml version="1.0" standalone="no"?>
<!DOCTYPE svg PUBLIC "-//W3C//DTD SVG 20010904//EN"
 "http://www.w3.org/TR/2001/REC-SVG-20010904/DTD/svg10.dtd">
<svg version="1.0" xmlns="http://www.w3.org/2000/svg"
 width="1786.000000pt" height="2526.000000pt" viewBox="0 0 1786.000000 2526.000000"
 preserveAspectRatio="xMidYMid meet">

<g transform="translate(0.000000,2526.000000) scale(0.100000,-0.100000)"
fill="#000000" stroke="none">
<path d="M1546 13464 c-319 -43 -618 -194 -851 -430 -363 -366 -510 -895 -390
-1393 124 -511 494 -910 1000 -1075 266 -88 634 -88 900 0 741 243 1171 988
1006 1744 -28 125 -55 201 -120 335 -283 578 -902 907 -1545 819z m476 -402
c394 -106 690 -415 780 -814 27 -120 28 -326 3 -443 -35 -168 -127 -362 -231
-489 -68 -83 -192 -181 -301 -238 -150 -79 -266 -114 -419 -127 -444 -38 -854
194 -1049 592 -279 571 -10 1258 580 1483 134 51 224 64 400 60 122 -3 178 -8
237 -24z"/>
<path d="M903 12607 c-232 -345 -240 -805 -20 -1146 44 -67 48 -71 70 -60 12
7 83 46 157 87 74 41 242 128 372 193 130 65 239 122 242 128 5 8 -354 211
-374 211 -4 0 -72 -34 -150 -76 -109 -57 -145 -72 -151 -62 -5 7 -9 81 -9 164
0 154 5 174 41 174 9 0 340 -176 735 -391 395 -215 733 -398 751 -407 31 -15
34 -15 48 4 40 50 128 247 152 339 23 87 26 120 26 255 0 136 -3 167 -26 253
-24 90 -105 276 -139 320 -13 17 -21 14 -138 -44 -69 -34 -243 -117 -387 -183
-144 -67 -263 -125 -265 -130 -2 -5 74 -57 169 -117 l172 -107 151 80 c120 63
154 77 165 68 12 -10 13 -42 8 -178 -6 -170 -12 -202 -39 -202 -8 0 -319 182
-692 404 -372 222 -711 422 -752 444 l-76 41 -41 -62z"/>
<path d="M16050 13446 c-86 -18 -150 -54 -218 -123 -76 -77 -38 2 -652 -1345
l-473 -1038 -1059 0 c-1140 0 -1105 -2 -1142 51 -16 24 -21 83 -10 113 6 15
403 387 1589 1490 253 235 468 442 478 459 23 43 25 262 2 311 -31 66 82 61
-1480 63 -1116 2 -1425 0 -1444 -10 -13 -6 -34 -25 -45 -40 -21 -28 -21 -32
-26 -1085 l-5 -1057 -23 -56 c-47 -117 -119 -197 -218 -244 -105 -50 -110 -50
-904 -50 -697 0 -749 1 -813 19 -119 33 -222 115 -275 221 -54 108 -52 68 -52
1154 0 959 -1 1008 -19 1047 -35 77 22 73 -1043 74 -570 0 -978 -4 -1030 -10
-297 -34 -569 -214 -697 -458 -52 -100 -80 -204 -87 -322 -10 -158 22 -210
134 -218 42 -3 68 1 90 12 53 28 66 59 73 176 8 130 39 217 108 310 83 110
194 181 346 220 75 19 111 20 966 20 l888 0 3 -957 4 -958 22 -73 c62 -203
188 -355 368 -445 147 -74 100 -71 978 -74 892 -4 897 -4 1040 65 157 76 257
171 336 323 77 148 73 87 77 1182 l4 978 1102 -3 c888 -2 1106 -6 1125 -16 30
-17 62 -70 62 -103 0 -14 -10 -40 -22 -58 -20 -28 -795 -755 -1774 -1663 -176
-164 -326 -308 -333 -321 -9 -17 -12 -60 -9 -146 l3 -123 32 -28 c23 -21 47
-30 86 -35 31 -4 654 -5 1385 -4 1325 4 1331 4 1358 25 15 11 36 31 46 45 10
13 254 542 543 1174 289 633 537 1168 553 1189 38 55 100 86 174 86 100 0 168
-42 213 -130 12 -25 215 -544 450 -1155 235 -610 437 -1128 448 -1149 32 -57
69 -81 125 -80 77 1 132 52 132 123 0 26 -178 492 -795 2082 -57 147 -116 291
-130 320 -36 70 -136 168 -205 202 -106 52 -245 68 -360 43z"/>
<path d="M4107 13384 c-285 -52 -518 -256 -621 -542 l-31 -87 -3 -695 c-3
-754 -2 -778 53 -913 88 -219 297 -406 535 -479 l75 -22 862 -4 c942 -3 911
-5 950 54 17 26 18 67 23 575 5 529 6 548 25 569 46 52 -17 50 1470 50 1523 0
1427 -4 1460 60 19 38 19 103 -1 141 -32 62 66 59 -1653 59 l-1571 0 -2 -590
-3 -590 -28 -27 -27 -28 -710 -3 c-786 -3 -784 -3 -904 61 -83 44 -186 143
-225 216 -17 33 -40 94 -51 137 -19 73 -20 113 -20 698 0 687 -1 677 65 811
63 131 202 240 351 279 54 14 168 16 890 17 615 0 838 3 864 12 90 31 110 180
31 234 -24 17 -82 18 -876 20 -697 1 -864 -1 -928 -13z"/>
<path d="M6443 11535 l-36 -36 6 -112 c6 -124 22 -187 74 -293 99 -201 274
-350 498 -426 l70 -23 898 -3 898 -3 35 35 c31 31 34 39 34 93 0 65 -15 95
-60 118 -25 13 -140 15 -837 15 -912 1 -910 1 -1051 70 -175 87 -281 243 -298
444 -11 119 -45 156 -145 156 -45 0 -55 -4 -86 -35z"/>
<path d="M4420 10395 c0 -25 0 -25 95 -25 l95 0 0 -130 0 -130 30 0 29 0 3
128 3 127 93 3 c90 3 92 3 92 27 l0 25 -220 0 -220 0 0 -25z"/>
<path d="M4960 10265 l0 -155 30 0 c29 0 30 1 30 50 l0 50 133 0 134 0 23 -50
c21 -45 27 -50 57 -50 39 0 40 5 12 63 l-22 44 21 21 c41 41 41 116 0 159 -21
22 -26 23 -220 23 l-198 0 0 -155z m368 96 c8 -5 12 -23 10 -47 l-3 -39 -157
-3 -158 -3 0 51 0 50 148 0 c81 0 153 -4 160 -9z"/>
<path d="M5651 10265 l-156 -155 45 0 c43 0 46 2 175 130 113 112 136 130 163
130 l32 0 0 -130 0 -130 30 0 30 0 0 155 0 155 -82 0 -82 0 -155 -155z"/>
<path d="M6070 10265 l0 -155 30 0 30 0 0 130 c0 119 2 130 18 130 28 0 45
-18 112 -120 94 -143 91 -140 177 -140 l73 0 0 155 0 155 -30 0 -30 0 0 -124
c0 -73 -4 -127 -10 -131 -23 -14 -50 10 -105 93 -32 48 -71 104 -87 125 -30
37 -30 37 -104 37 l-74 0 0 -155z"/>
<path d="M6636 10399 c-36 -29 -37 -99 -1 -134 23 -24 28 -25 178 -25 158 0
177 -5 177 -42 0 -31 -35 -38 -204 -38 l-166 0 0 -25 0 -25 190 0 c189 0 191
0 215 25 34 33 35 102 2 133 -22 21 -33 22 -171 22 -151 0 -186 7 -186 38 0
38 18 42 197 42 l173 0 0 25 0 25 -189 0 c-175 0 -190 -1 -215 -21z"/>
<path d="M7170 10400 c-18 -18 -20 -33 -20 -155 l0 -135 30 0 c29 0 30 1 30
50 l0 50 170 0 170 0 0 30 0 30 -170 0 -170 0 0 38 c0 21 5 43 12 50 8 8 66
12 195 12 l183 0 0 25 0 25 -205 0 c-192 0 -206 -1 -225 -20z"/>
<path d="M7715 10395 c-23 -22 -25 -31 -25 -128 0 -99 1 -106 26 -131 l27 -26
168 0 c163 0 169 1 196 24 27 23 28 29 31 123 4 95 3 101 -23 131 l-27 32
-174 0 c-172 0 -175 0 -199 -25z m339 -31 c13 -5 16 -24 16 -99 0 -75 -3 -94
-16 -99 -9 -3 -73 -6 -144 -6 -159 0 -160 1 -160 109 0 46 5 82 12 89 13 13
262 18 292 6z"/>
<path d="M8230 10265 l0 -155 30 0 c29 0 30 1 30 50 l0 50 136 0 135 0 22 -50
c21 -47 24 -50 60 -50 l37 0 -25 51 -26 50 26 30 c40 48 28 154 -20 173 -9 3
-104 6 -211 6 l-194 0 0 -155z m382 80 c8 -19 8 -31 0 -50 l-12 -25 -155 0
-155 0 0 43 c0 24 3 47 7 50 3 4 73 7 155 7 l148 0 12 -25z"/>
<path d="M8770 10265 l0 -155 30 0 29 0 3 127 c3 115 5 128 22 131 27 6 34 -6
80 -134 40 -114 43 -119 70 -119 27 0 31 5 70 115 48 134 51 140 77 140 18 0
19 -8 19 -130 l0 -130 35 0 35 0 0 155 0 155 -69 0 c-38 0 -76 -3 -85 -6 -8
-3 -29 -46 -47 -95 -36 -100 -37 -100 -70 1 -31 94 -38 100 -126 100 l-73 0 0
-155z"/>
<path d="M9656 10398 c12 -40 73 -156 86 -165 7 -4 76 -10 153 -13 l140 -5 3
-52 c3 -51 4 -53 33 -53 l29 0 0 155 0 155 -30 0 c-29 0 -29 0 -32 -67 l-3
-68 -125 -3 -126 -3 -34 71 c-32 66 -36 70 -68 70 -30 0 -33 -2 -26 -22z"/>
<path d="M10215 10388 c-26 -30 -27 -36 -23 -131 3 -94 4 -100 31 -123 27 -23
33 -24 196 -24 l168 0 27 26 c25 25 26 32 26 131 0 97 -2 106 -25 128 -24 25
-27 25 -199 25 l-174 0 -27 -32z m353 -30 c7 -7 12 -43 12 -89 0 -108 -1 -109
-160 -109 -71 0 -135 3 -144 6 -13 5 -16 24 -16 99 0 65 4 95 13 98 27 12 283
7 295 -5z"/>
<path d="M10731 10289 c4 -129 4 -131 32 -155 27 -23 33 -24 198 -24 167 0
170 0 194 25 24 23 25 29 25 155 l0 130 -30 0 -30 0 0 -120 c0 -108 -2 -120
-19 -130 -11 -5 -74 -10 -141 -10 -67 0 -130 5 -141 10 -17 10 -19 22 -19 130
l0 120 -36 0 -36 0 3 -131z"/>
<path d="M11280 10265 l0 -155 30 0 c29 0 30 1 30 50 l0 50 133 0 134 0 23
-50 c21 -45 27 -50 57 -50 18 0 33 2 33 5 0 3 -9 23 -20 45 -11 22 -20 44 -20
50 0 6 9 20 20 32 31 33 28 121 -5 153 -24 25 -25 25 -220 25 l-195 0 0 -155z
m369 91 c7 -8 11 -30 9 -48 l-3 -33 -157 -3 -158 -3 0 51 0 50 149 0 c117 0
151 -3 160 -14z"/>
<path d="M12130 10265 l0 -155 76 0 c88 0 104 7 134 57 21 35 23 37 34 18 6
-10 23 -32 38 -47 25 -26 32 -28 107 -28 l81 0 0 155 0 155 -35 0 -35 0 0
-130 c0 -121 -1 -130 -19 -130 -37 0 -51 13 -86 75 -29 52 -35 72 -35 123 l0
62 -30 0 -30 0 0 -69 c0 -54 -5 -78 -25 -113 -32 -58 -58 -80 -87 -76 -23 3
-23 5 -26 131 l-3 127 -29 0 -30 0 0 -155z"/>
<path d="M12715 10395 c-23 -22 -25 -31 -25 -125 0 -99 1 -102 29 -131 l29
-29 167 0 167 0 29 29 c28 28 29 33 29 121 0 156 -5 159 -228 160 -170 0 -173
0 -197 -25z m353 -124 c2 -69 -1 -97 -10 -103 -7 -4 -72 -8 -145 -8 -161 0
-163 1 -163 101 0 113 -4 110 168 107 l147 -3 3 -94z"/>
<path d="M13230 10265 l0 -155 30 0 c29 0 30 1 30 50 l0 50 135 0 135 0 25
-50 c23 -45 29 -50 60 -50 l34 0 -24 52 -24 51 25 30 c34 40 34 113 -1 151
l-24 26 -201 0 -200 0 0 -155z m382 80 c8 -19 8 -31 0 -50 l-12 -25 -155 0
-155 0 0 43 c0 24 3 47 7 50 3 4 73 7 155 7 l148 0 12 -25z"/>
<path d="M13770 10294 c0 -125 0 -126 29 -155 l29 -29 196 0 196 0 0 25 0 25
-174 0 c-96 0 -181 3 -190 6 -13 5 -16 26 -16 130 l0 124 -35 0 -35 0 0 -126z"/>
<path d="M14310 10265 l0 -155 199 0 198 0 27 26 c25 25 26 32 26 131 0 97 -2
106 -25 128 -24 25 -25 25 -225 25 l-200 0 0 -155z m378 93 c7 -7 12 -43 12
-89 0 -110 1 -109 -176 -109 l-144 0 0 105 0 105 148 0 c102 0 152 -4 160 -12z"/>
</g>
</svg>
