<?xml version="1.0" standalone="no"?>
<!DOCTYPE svg PUBLIC "-//W3C//DTD SVG 20010904//EN"
 "http://www.w3.org/TR/2001/REC-SVG-20010904/DTD/svg10.dtd">
<svg version="1.0" xmlns="http://www.w3.org/2000/svg"
 width="596.000000pt" height="842.000000pt" viewBox="0 0 596.000000 842.000000"
 preserveAspectRatio="xMidYMid meet">

<g transform="translate(0.000000,842.000000) scale(0.100000,-0.100000)"
fill="#000000" stroke="none">
<path d="M693 5046 c-158 -52 -263 -222 -234 -379 51 -279 375 -387 574 -193
167 162 119 450 -90 553 -66 32 -183 41 -250 19z m122 -284 c110 -66 203 -118
208 -115 12 7 8 113 -4 113 -6 0 -29 -10 -50 -22 -38 -21 -39 -21 -73 -3 -92
50 -93 46 39 109 65 31 121 56 125 56 4 0 17 -23 31 -52 31 -65 33 -179 6
-250 -32 -82 -22 -84 -277 56 -127 69 -236 126 -241 126 -5 0 -9 -25 -9 -55
l0 -55 49 24 49 25 57 -31 c31 -17 53 -34 48 -38 -4 -4 -60 -36 -125 -69
l-116 -62 -29 58 c-24 50 -28 69 -28 143 1 82 17 138 57 187 12 15 21 11 283
-145z"/>
</g>
</svg>
