<svg width="1612" height="1362" viewBox="0 0 1612 1362" xmlns="http://www.w3.org/2000/svg">
    <path id="Path" fill="#2f3d82" stroke="none" d="M 271.455322 932.425293 C 296.240723 932.425293 352.010864 930.875488 425.600342 930.875488 C 427.921021 930.875488 429.470825 928.550659 430.245728 920.030518 C 431.020752 914.610229 431.020752 860.385742 429.470825 844.124634 C 427.921021 827.855225 425.600342 825.530396 407.010315 820.88501 C 400.810852 819.335083 396.940308 817.010254 396.940308 813.139771 C 396.940308 809.265137 400.810852 808.490234 410.105835 808.490234 C 415.530396 808.490234 441.865601 809.265137 451.931396 809.265137 C 465.876099 809.265137 485.241089 807.71521 489.890625 807.71521 C 496.085938 807.71521 501.506348 809.265137 501.506348 812.364868 C 501.506348 814.689697 498.410767 817.010254 489.115723 819.335083 C 472.071289 823.209717 468.200806 830.954956 467.425903 843.349731 C 465.101074 864.260376 464.326172 909.185669 464.326172 979.675415 C 464.326172 998.265503 465.876099 1034.670654 465.876099 1040.865967 C 466.651001 1057.131226 470.525635 1058.68103 489.115723 1064.105591 C 495.311035 1066.43042 498.410767 1069.526001 498.410767 1071.846558 C 498.410767 1074.175537 494.536011 1076.500366 486.790894 1076.500366 C 480.591431 1076.500366 465.101074 1074.946289 452.706299 1074.946289 C 443.411255 1074.946289 412.430664 1077.271118 404.685486 1077.271118 C 398.486023 1077.271118 394.61554 1076.500366 394.61554 1072.625732 C 394.61554 1068.751099 399.260986 1066.43042 403.910583 1064.880493 C 426.371094 1057.910278 428.695923 1053.256592 429.470825 1024.600708 C 430.245728 1007.560547 431.020752 978.900513 431.020752 957.985596 C 431.020752 950.240479 429.470825 949.465454 425.600342 949.465454 C 361.305908 949.465454 279.975464 947.915649 271.455322 949.465454 C 269.130554 951.015381 266.809937 953.34021 266.809937 956.435791 C 266.034973 967.28064 266.809937 1019.95105 266.809937 1032.345825 C 267.580688 1051.710815 271.455322 1059.456055 289.270447 1064.880493 C 298.565491 1067.201172 301.665222 1068.751099 301.665222 1073.396484 C 301.665222 1078.046021 295.46991 1077.271118 289.270447 1077.271118 C 286.174927 1077.271118 261.385376 1075.721313 245.895081 1075.721313 C 236.600037 1075.721313 218.784912 1077.271118 204.840271 1077.271118 C 195.545227 1077.271118 192.449707 1075.721313 192.449707 1073.396484 C 192.449707 1069.526001 197.095093 1066.43042 201.74469 1065.651245 C 222.659546 1060.230957 226.53009 1056.360474 228.079956 1040.091064 C 229.62561 1023.825806 231.95459 976.575684 231.95459 908.410767 C 231.95459 900.665527 232.725342 862.714722 231.95459 844.895386 C 231.179688 830.954956 228.854858 824.759644 211.039734 820.88501 C 202.519653 819.335083 199.419922 816.235352 199.419922 813.139771 C 199.419922 810.040039 204.840271 808.490234 211.814697 808.490234 C 223.430359 808.490234 238.924805 809.265137 249.765564 809.265137 C 266.809937 809.265137 279.2005 808.490234 289.270447 808.490234 C 299.340454 808.490234 302.440186 810.814941 302.440186 813.139771 C 302.440186 817.010254 299.340454 819.335083 290.04541 820.88501 C 270.68042 824.759644 269.130554 830.954956 268.355591 847.995117 C 266.809937 861.939697 266.809937 916.160034 266.809937 923.130249 C 266.809937 930.100464 269.130554 932.425293 271.455322 932.425293"/>
    <path id="path1" fill="#2f3d82" stroke="none" d="M 598.329224 1051.712524 C 600.653931 1048.612793 602.203857 1045.513062 602.97876 1041.642578 C 603.753662 1031.572632 603.753662 1017.62793 603.753662 1009.10791 C 603.753662 1007.557983 602.203857 1006.012329 600.653931 1006.012329 C 585.934448 1007.557983 571.218994 1011.432617 558.053467 1018.402832 C 552.628906 1021.502563 549.533447 1027.697876 549.533447 1033.897339 C 550.30835 1047.837891 561.92395 1058.682739 575.864502 1058.682739 C 584.388672 1057.907837 592.133911 1055.587158 598.329224 1051.712524 M 626.214233 928.552368 C 632.413696 937.072388 634.734375 945.592529 634.734375 962.63269 C 634.734375 978.897949 633.188721 1030.797607 633.188721 1035.443115 C 633.188721 1054.808105 646.354248 1056.35791 649.453979 1056.35791 C 654.874268 1055.587158 660.298828 1053.258179 664.944214 1050.162598 C 666.494141 1049.383545 666.494141 1050.162598 667.269043 1051.712524 C 668.043945 1053.258179 668.814697 1054.037354 668.814697 1055.587158 C 668.814697 1063.328125 650.228882 1081.143311 631.638794 1081.143311 C 619.244019 1081.143311 608.39917 1072.627319 605.299438 1060.232666 C 605.299438 1059.453491 603.753662 1057.907837 602.97876 1058.682739 C 591.358887 1066.427856 578.968384 1073.398193 565.798706 1078.043579 C 560.374146 1079.593384 554.953735 1080.372559 549.533447 1080.372559 C 534.813843 1080.372559 520.873413 1062.557373 520.873413 1041.642578 C 520.873413 1033.897339 523.968994 1026.148071 528.61853 1020.727661 C 533.263916 1016.078125 538.688477 1012.207642 544.883789 1010.657715 C 551.079102 1008.332886 584.388672 999.037842 593.683716 995.942383 C 602.97876 992.842651 606.074341 991.292725 606.074341 988.192993 C 606.849243 984.32251 606.849243 959.532959 606.849243 954.112549 C 604.528687 937.847412 590.583984 926.227539 574.318726 926.227539 C 568.123413 926.227539 562.698975 927.777344 557.274414 930.877075 C 554.953735 932.427002 553.403931 939.397217 554.178833 947.917358 C 553.403931 949.463013 552.628906 951.01709 551.854004 952.562744 C 543.333984 957.987305 534.03894 962.63269 524.743896 966.507324 C 522.419067 965.732422 520.098389 963.407593 520.098389 961.087036 C 520.098389 949.463013 531.714111 937.847412 551.079102 924.677612 C 562.698975 916.157593 575.868652 911.512085 589.809082 909.187378 C 603.753662 908.412354 617.694214 915.382568 626.214233 928.552368"/>
    <path id="path2" fill="#2f3d82" stroke="none" d="M 692.05481 923.903564 C 702.89978 920.033081 712.969727 916.158447 722.260498 910.738037 C 726.910156 907.638306 729.234985 906.088379 730.78479 906.088379 C 732.330566 906.088379 734.659424 909.963135 734.659424 910.738037 C 734.659424 918.483154 733.884521 925.453369 733.884521 933.198608 C 733.884521 934.748413 736.2052 935.523438 736.980103 934.748413 C 753.249512 919.258179 771.060547 909.18811 784.230225 909.18811 C 801.270386 909.18811 805.14502 919.258179 805.14502 923.128662 C 804.370117 925.453369 803.595215 927.003296 802.820313 929.328125 C 798.170654 936.29834 791.975342 942.493652 785.780029 948.693115 C 783.4552 948.693115 781.905396 948.693115 779.580566 947.143188 C 773.385254 941.718628 764.865234 938.623169 757.119995 937.848145 C 750.14978 937.073242 743.954468 939.398071 738.530029 944.043457 C 736.2052 946.368286 734.659424 949.463867 734.659424 953.338501 C 734.659424 961.858643 736.980103 1036.993774 736.980103 1042.414185 C 737.755005 1054.033936 740.079834 1062.554077 747.824951 1063.328979 C 753.249512 1064.878906 760.990479 1066.428711 767.189941 1067.978638 C 773.385254 1069.524292 774.935181 1072.624023 774.935181 1074.17395 C 774.935181 1075.719604 771.060547 1078.044434 764.865234 1078.044434 C 754.795288 1078.044434 740.079834 1075.719604 716.065308 1075.719604 C 703.674683 1075.719604 699.025024 1077.273682 688.955078 1077.273682 C 684.309692 1077.273682 680.434937 1075.719604 680.434937 1072.624023 C 680.434937 1069.524292 685.084595 1068.75354 688.955078 1067.203613 C 705.224487 1061.783325 705.999512 1057.908691 706.770264 1033.119141 L 706.770264 954.113403 C 707.545166 949.463867 705.999512 944.818359 702.124756 941.718628 C 692.05481 933.973511 688.180176 932.423706 688.180176 930.103027 C 686.634521 927.778198 688.955078 924.678467 692.05481 923.903564"/>
    <path id="path3" fill="#2f3d82" stroke="none" d="M 830.704468 913.060791 C 838.449707 913.060791 860.914429 915.385498 864.789063 915.385498 C 875.629761 915.385498 885.699707 914.610596 890.349365 914.610596 C 896.544678 914.610596 899.644409 916.160522 899.644409 919.255981 C 899.644409 922.355713 895.769775 923.90564 890.349365 925.455566 C 877.95459 928.551025 879.504517 934.750488 881.050171 939.395996 C 891.120117 969.605835 903.514893 999.040771 918.234497 1026.925903 C 919.009399 1028.475708 920.555054 1026.925903 921.329956 1025.375977 C 926.754517 1012.206299 949.215088 954.890503 953.089722 941.720825 C 956.189453 930.875854 952.314819 928.551025 940.694946 923.90564 C 937.599487 922.355713 933.724731 920.805908 933.724731 918.481079 C 933.724731 916.160522 936.824463 913.835693 942.244873 913.835693 C 950.765015 913.835693 954.639648 915.385498 964.709595 915.385498 C 972.454712 915.385498 984.849487 913.060791 992.590454 913.060791 C 996.46521 913.060791 1001.114746 915.385498 1001.114746 917.706177 C 1001.114746 920.031006 998.790039 921.580811 992.590454 923.90564 C 984.074585 927.001221 977.10022 932.425781 971.67981 940.170898 C 966.259399 948.69104 950.765015 988.970825 938.370239 1018.405762 C 925.979614 1047.836548 926.754517 1051.711304 919.780151 1074.176025 C 917.459473 1081.14624 912.809937 1085.016724 909.710205 1085.016724 C 908.164429 1085.016724 905.839722 1081.916992 904.289795 1077.271606 C 899.644409 1063.326904 898.869507 1059.456421 889.574463 1034.671021 C 877.179688 1001.36145 862.464233 968.830933 846.194824 937.071167 C 843.099243 930.100952 836.129028 925.455566 829.154663 923.130737 C 822.959351 920.805908 821.409424 919.255981 821.409424 916.935425 C 821.409424 914.610596 827.604736 913.060791 830.704468 913.060791"/>
    <path id="path4" fill="#2f3d82" stroke="none" d="M 1044.490234 951.015015 C 1043.71521 953.339722 1045.265137 955.6604 1046.040039 955.6604 C 1056.88501 956.435303 1078.570557 956.435303 1099.485474 955.6604 C 1109.55542 955.6604 1113.425903 953.339722 1113.425903 945.594604 C 1111.880249 931.650024 1100.260376 920.805054 1086.319946 920.805054 C 1067.729858 920.805054 1050.685547 933.199829 1044.490234 951.015015 M 1132.015991 925.454712 C 1141.311035 934.749756 1146.735474 947.140259 1146.735474 960.309937 C 1145.960571 964.184692 1142.86084 967.280273 1138.990356 967.280273 L 1044.490234 967.280273 C 1042.940308 967.280273 1041.390503 969.60498 1041.390503 970.380005 C 1039.840576 975.025391 1039.069824 979.674927 1039.069824 985.095337 C 1039.069824 1002.139771 1044.490234 1018.405029 1054.560181 1032.345459 C 1065.405029 1047.064941 1083.220215 1054.810181 1101.035278 1054.810181 C 1119.625366 1054.810181 1132.015991 1050.160522 1138.990356 1040.090576 C 1140.540283 1037.77002 1142.86084 1035.44519 1144.410767 1035.44519 C 1145.960571 1035.44519 1147.510498 1038.540771 1147.510498 1040.090576 C 1147.510498 1043.190308 1145.960571 1047.064941 1144.410767 1050.160522 C 1131.245239 1070.300537 1108.005493 1081.916138 1083.990967 1081.145386 C 1039.069824 1081.145386 1009.634888 1047.064941 1009.634888 999.040039 C 1008.859985 964.959595 1028.224976 933.199829 1059.205566 917.705322 C 1069.275513 913.059937 1080.120483 910.739258 1090.965332 909.960205 C 1105.684937 909.185303 1120.400269 915.384766 1132.015991 925.454712"/>
    <path id="path5" fill="#2f3d82" stroke="none" d="M 1256.725586 911.510498 C 1261.375244 912.2854 1266.02063 913.835205 1269.895264 916.160034 C 1271.44519 917.705811 1272.990845 920.030518 1272.990845 922.355347 C 1272.990845 930.100464 1274.540771 944.045166 1274.540771 947.140747 C 1274.540771 950.240479 1272.990845 954.890015 1269.895264 954.890015 C 1268.345459 954.890015 1266.02063 952.565186 1263.695801 947.915649 C 1254.400757 928.550659 1244.330811 920.030518 1230.390381 920.030518 C 1216.449951 920.805542 1205.60083 931.650391 1205.60083 945.594971 C 1205.60083 959.535522 1218.770508 970.380371 1246.65564 985.870728 C 1269.895264 999.815308 1279.190308 1013.755737 1279.190308 1032.345825 C 1278.415405 1048.611084 1269.120361 1064.105591 1255.175781 1072.625732 C 1244.330811 1078.821045 1232.71521 1081.916626 1220.320435 1081.916626 C 1207.925659 1081.916626 1187.015015 1078.821045 1180.040527 1072.625732 C 1176.170044 1062.555786 1174.620239 1051.710815 1173.845215 1040.865967 C 1173.845215 1036.220459 1174.620239 1032.345825 1176.944946 1032.345825 C 1179.265625 1032.345825 1183.140259 1036.995483 1185.465088 1041.640869 C 1197.084961 1062.555786 1207.925659 1071.075806 1223.420166 1071.075806 C 1229.615479 1070.300903 1235.035767 1068.751099 1239.685425 1064.880493 C 1245.880737 1058.68103 1248.980469 1050.161011 1248.980469 1041.640869 C 1248.980469 1030.796021 1242.781006 1021.500977 1230.390381 1013.755737 C 1220.320435 1006.785522 1217.995605 1004.460815 1204.825928 996.715576 C 1189.335571 988.195557 1180.040527 971.926025 1179.265625 954.890015 C 1179.265625 939.395508 1188.564819 924.680176 1201.730347 917.705811 C 1211.800293 911.510498 1223.420166 908.410767 1235.035767 909.185669 C 1242.010254 909.185669 1249.755371 909.960571 1256.725586 911.510498"/>
    <path id="path6" fill="#2f3d82" stroke="none" d="M 1407.770508 913.060791 C 1407.770508 913.060791 1412.415894 915.385498 1412.415894 916.160522 C 1413.190796 921.580811 1413.190796 926.230469 1413.96582 931.650757 C 1413.96582 935.525513 1406.220581 936.300415 1403.12085 936.300415 L 1358.195557 936.300415 C 1356.645752 936.300415 1355.095825 937.846069 1354.325073 939.395996 C 1353.550171 947.916016 1353.550171 1008.335815 1353.550171 1028.475708 C 1352.775269 1036.220947 1355.095825 1043.191162 1360.520386 1048.611572 C 1367.490601 1054.806763 1376.785645 1057.131592 1386.080688 1056.36084 C 1393.050903 1055.585938 1400.025269 1054.036011 1406.220581 1050.161377 C 1410.095215 1047.836548 1410.870239 1047.836548 1412.415894 1047.836548 C 1413.190796 1047.836548 1414.740723 1048.611572 1414.740723 1052.486206 C 1413.96582 1056.36084 1411.640991 1060.231323 1408.54541 1062.556152 C 1396.925537 1074.176025 1380.660278 1081.14624 1364.390869 1080.371338 C 1349.675537 1080.371338 1336.51001 1073.396851 1327.989868 1061.78125 C 1323.34021 1053.256958 1321.790405 1043.966064 1322.565308 1034.671021 C 1322.565308 1019.176514 1324.115234 957.21106 1324.115234 942.495728 C 1324.115234 939.395996 1316.369995 937.071167 1308.624878 933.975586 C 1305.525146 932.425781 1302.425415 930.875854 1302.425415 929.32605 C 1302.425415 927.776123 1303.200317 926.230469 1304.750244 924.680542 C 1316.369995 916.160522 1327.989868 906.090454 1338.059814 896.020508 C 1342.7052 889.821045 1345.800781 886.725464 1347.354858 886.725464 C 1349.675537 887.500488 1352.000244 889.046143 1352.775269 891.370972 L 1352.775269 910.735962 C 1352.775269 912.285767 1354.325073 913.835693 1355.870728 913.835693 C 1365.940796 915.385498 1406.220581 913.060791 1407.770508 913.060791"/>
    <path id="path7" fill="#2ab4c6" stroke="none" d="M 1407.988647 1280.526978 L 210.011459 1280.526978 C 206.880539 1280.526978 205 1278.019653 205 1275.515625 C 205 1273.008301 207.507401 1270.500977 210.011459 1270.500977 L 1407.988647 1270.500977 C 1411.122925 1270.500977 1413 1273.008301 1413 1275.515625 C 1413 1278.019653 1411.122925 1280.526978 1407.988647 1280.526978"/>
    <path id="Path-copy" fill="#2ab4c6" stroke="none" d="M 1409.341553 820.762634 L 534.779907 820.762634 C 532.494263 820.762634 531.121399 817.570923 531.121399 814.383484 C 531.121399 811.191711 532.951904 808 534.779907 808 L 1409.341553 808 C 1411.629639 808 1413 811.191711 1413 814.383484 C 1413 817.570923 1411.629639 820.762634 1409.341553 820.762634"/>
    <path id="path8" fill="#2f3d82" stroke="none" d="M 218.784485 1145.43396 C 218.009583 1138.463745 218.009583 1136.143188 209.489441 1133.818359 C 206.389709 1133.039185 204.839844 1132.268433 204.839844 1130.718628 C 204.839844 1129.168701 206.389709 1129.168701 208.714539 1129.168701 C 212.589172 1129.168701 221.109314 1129.943604 225.7547 1129.943604 C 233.499878 1129.943604 237.374573 1129.168701 242.794922 1129.168701 C 245.11969 1129.168701 246.669556 1129.943604 246.669556 1130.718628 C 246.669556 1131.49353 245.11969 1133.039185 242.794922 1133.039185 C 233.499878 1134.589111 233.499878 1139.238647 233.499878 1143.109253 C 232.729126 1158.603638 231.954163 1174.093994 232.729126 1189.588501 C 232.729126 1198.108643 232.729126 1208.178589 233.499878 1212.823975 C 234.274841 1221.344116 235.049744 1224.443848 245.11969 1225.993652 C 248.219421 1226.764404 248.990234 1227.539307 248.990234 1228.318481 C 248.990234 1229.089233 246.669556 1230.63916 244.344788 1230.63916 C 236.599609 1230.63916 224.979797 1229.868408 221.109314 1229.868408 L 208.714539 1229.868408 C 205.614807 1229.868408 204.839844 1229.089233 204.839844 1227.539307 C 204.839844 1225.993652 206.389709 1225.2146 209.489441 1225.2146 C 217.234619 1223.668945 218.009583 1221.344116 218.784485 1213.598877 C 219.559448 1208.178589 219.559448 1191.90918 219.559448 1177.968628 C 219.559448 1169.448608 218.784485 1150.083618 218.784485 1145.43396"/>
    <path id="path9" fill="#2f3d82" stroke="none" d="M 308.636719 1129.16748 C 311.73645 1129.16748 319.481628 1129.946533 327.997559 1129.946533 C 328.772461 1129.946533 330.326538 1131.49646 331.10144 1132.267212 C 333.422058 1135.362793 337.296753 1140.016602 343.492065 1147.761719 C 349.691528 1155.502686 385.317566 1194.232666 396.162476 1205.852539 C 396.937439 1206.627441 397.712341 1205.077637 397.712341 1205.077637 C 398.487305 1199.657227 397.712341 1183.391968 397.712341 1160.152344 C 397.712341 1154.731934 397.712341 1149.307373 396.937439 1144.661987 C 396.937439 1141.562256 395.387573 1137.691772 386.867432 1135.362793 C 383.771912 1134.592041 382.222046 1133.042114 382.222046 1132.267212 C 382.222046 1131.49646 384.546814 1130.717407 386.092529 1130.717407 L 399.262207 1130.717407 C 404.682556 1130.717407 410.107117 1129.946533 413.9776 1129.946533 C 416.302429 1129.946533 417.852295 1130.717407 417.852295 1131.49646 C 417.852295 1132.267212 417.077332 1133.817139 413.9776 1134.592041 C 407.007385 1136.141846 404.682556 1137.691772 403.911804 1146.211792 C 403.911804 1151.632202 402.361938 1182.617065 402.361938 1209.727173 C 402.361938 1215.922485 403.136902 1228.317261 403.136902 1230.637939 C 403.136902 1232.962646 402.361938 1233.737549 400.812073 1233.737549 C 399.262207 1233.737549 395.387573 1230.637939 393.841858 1228.317261 C 391.517029 1225.217529 388.417297 1220.567871 383.771912 1215.922485 C 369.052307 1198.1073 341.9422 1167.897461 327.226807 1150.8573 C 326.451843 1150.086548 325.676941 1150.086548 325.676941 1150.8573 C 325.676941 1154.731934 324.901978 1159.377319 324.901978 1171.772095 C 324.901978 1185.712646 324.127075 1210.497925 324.901978 1215.147461 C 325.676941 1222.121948 327.226807 1224.442627 334.971924 1226.767334 C 338.067505 1227.538086 338.842468 1228.317261 338.842468 1229.867188 C 338.842468 1231.412842 336.52179 1232.191895 333.422058 1232.191895 C 328.772461 1232.191895 322.577209 1231.412842 316.381897 1231.412842 L 306.31189 1231.412842 C 303.987122 1231.412842 302.441406 1231.412842 302.441406 1229.867188 C 302.441406 1228.317261 303.987122 1227.538086 305.536987 1227.538086 C 313.282166 1225.217529 315.606934 1224.442627 316.381897 1212.822754 C 317.156799 1201.207031 319.481628 1162.477051 319.481628 1149.307373 C 319.481628 1143.887085 318.706665 1142.337158 318.706665 1141.566406 C 315.606934 1134.592041 314.057068 1134.592041 307.086853 1133.042114 C 305.536987 1132.267212 303.987122 1131.49646 303.987122 1130.717407 C 303.987122 1129.946533 305.536987 1129.16748 308.636719 1129.16748"/>
    <path id="path10" fill="#2f3d82" stroke="none" d="M 531.714966 1129.944458 C 532.489868 1129.944458 533.264771 1132.269287 533.264771 1133.040039 C 533.264771 1136.139771 534.814697 1145.434814 534.814697 1146.209717 C 534.814697 1148.534546 534.814697 1150.084473 533.264771 1150.084473 C 531.714966 1150.084473 530.165039 1148.534546 529.390137 1146.984741 C 527.844482 1142.339233 525.519653 1138.4646 521.64502 1135.364868 C 518.549438 1133.040039 514.674683 1131.494385 510.800049 1131.494385 C 500.730103 1131.494385 492.989136 1139.235352 492.989136 1148.534546 L 492.989136 1149.305298 C 492.989136 1160.154419 500.730103 1165.574707 514.674683 1174.869751 C 527.069458 1183.389893 536.364502 1191.13916 536.364502 1205.854614 C 536.364502 1215.145508 530.940063 1223.669678 523.194824 1228.315186 C 516.999512 1232.189819 509.250244 1233.735596 501.509155 1233.735596 C 494.53479 1233.735596 487.564575 1232.189819 480.59021 1229.090088 C 479.044434 1227.540283 477.494629 1225.994507 476.719727 1223.669678 C 475.944702 1218.245117 474.394897 1211.274902 474.394897 1208.950195 C 474.394897 1208.175293 475.944702 1205.854614 476.719727 1205.854614 C 477.494629 1205.854614 480.59021 1209.725098 482.919189 1215.145508 C 487.564575 1222.894775 495.309692 1227.540283 503.829834 1227.540283 C 513.89978 1227.540283 522.419922 1219.795044 522.419922 1209.725098 L 522.419922 1208.950195 C 522.419922 1201.97998 519.32019 1195.009766 503.054932 1184.939697 C 489.889404 1176.419678 479.819458 1167.124634 479.819458 1153.959106 C 479.819458 1146.209717 482.919189 1139.235352 488.339478 1134.589966 C 494.53479 1129.165405 503.054932 1126.069824 511.579224 1126.844727 C 519.32019 1126.844727 525.519653 1128.394653 531.714966 1129.944458"/>
    <path id="path11" fill="#2f3d82" stroke="none" d="M 683.535156 1129.16748 C 687.40564 1129.16748 691.280273 1128.392578 694.380005 1126.071899 C 695.155029 1125.296997 695.929932 1125.296997 696.700684 1125.296997 C 697.475586 1125.296997 698.250488 1126.842651 697.475586 1129.16748 C 695.929932 1135.362793 694.380005 1140.787354 694.380005 1146.982666 C 694.380005 1148.532471 692.8302 1150.086548 691.280273 1150.086548 C 689.730469 1150.086548 689.730469 1149.307373 688.955566 1144.661987 C 688.180542 1136.141846 685.859985 1135.362793 676.564941 1135.362793 L 654.10022 1135.362793 C 651.775391 1135.362793 652.550293 1136.912598 652.550293 1137.691772 L 652.550293 1176.417603 C 652.550293 1194.232666 652.550293 1209.727173 653.325317 1215.147461 C 654.10022 1222.121948 654.875122 1224.442627 664.945068 1225.992432 C 667.269897 1226.767334 669.590576 1227.538086 669.590576 1229.088013 C 669.590576 1230.637939 666.494995 1230.637939 664.945068 1230.637939 C 663.395264 1230.637939 654.10022 1229.867188 647.130005 1229.867188 C 640.155518 1229.867188 630.860474 1230.637939 629.314819 1230.637939 C 627.765015 1230.637939 624.665283 1229.867188 624.665283 1229.088013 C 624.665283 1228.317261 626.215088 1226.767334 627.765015 1226.767334 C 638.609863 1224.442627 639.384766 1221.342773 639.384766 1209.727173 C 639.384766 1200.427979 640.155518 1168.672363 640.155518 1156.28186 L 640.155518 1137.691772 C 640.155518 1136.141846 639.384766 1135.362793 638.609863 1135.362793 C 635.510132 1134.592041 621.565552 1134.592041 619.244873 1134.592041 C 615.370239 1133.817139 610.724731 1135.362793 607.625 1138.462524 C 605.300293 1140.787354 603.754517 1143.887085 602.204712 1146.982666 C 600.654785 1150.086548 599.879883 1150.086548 599.10498 1150.086548 C 598.329956 1150.086548 597.555054 1147.757568 597.555054 1146.211792 C 599.10498 1139.237427 599.879883 1132.267212 600.654785 1125.296997 C 600.654785 1123.74707 601.429688 1122.972168 602.979614 1122.972168 C 603.754517 1122.972168 603.754517 1123.74707 605.300293 1125.296997 C 606.850098 1126.842651 608.400024 1127.621826 610.724731 1128.392578 C 614.595215 1129.16748 626.98999 1129.16748 647.904907 1129.16748 C 654.875122 1129.946533 676.564941 1129.946533 683.535156 1129.16748"/>
    <path id="path12" fill="#2f3d82" stroke="none" d="M 767.963623 1145.43396 C 767.188721 1138.463745 767.188721 1136.143188 758.668701 1133.818359 C 755.56897 1133.039185 754.019043 1132.268433 754.019043 1130.718628 C 754.019043 1129.168701 755.56897 1129.168701 757.893677 1129.168701 C 761.768433 1129.168701 769.51355 1129.943604 774.93396 1129.943604 C 782.679077 1129.943604 786.553711 1129.168701 791.974121 1129.168701 C 794.29895 1129.168701 795.848755 1129.943604 795.848755 1130.718628 C 795.848755 1131.49353 794.29895 1133.039185 791.974121 1133.039185 C 782.679077 1134.589111 782.679077 1139.238647 782.679077 1143.109253 C 781.908325 1158.603638 781.133423 1174.093994 781.908325 1189.588501 C 781.908325 1198.108643 781.908325 1208.178589 782.679077 1212.823975 C 783.453979 1221.344116 784.228882 1224.443848 794.29895 1225.993652 C 797.398682 1226.764404 798.169434 1227.539307 798.169434 1228.318481 C 798.169434 1229.089233 795.848755 1230.63916 793.523926 1230.63916 C 785.778809 1230.63916 774.158936 1229.868408 770.288452 1229.868408 L 757.893677 1229.868408 C 754.793945 1229.868408 754.019043 1229.089233 754.019043 1227.539307 C 754.019043 1225.993652 755.56897 1225.2146 758.668701 1225.2146 C 766.413818 1223.668945 767.188721 1221.344116 767.963623 1213.598877 C 768.738647 1208.178589 768.738647 1191.90918 768.738647 1177.968628 C 768.738647 1169.448608 767.963623 1150.083618 767.963623 1145.43396"/>
    <path id="path13" fill="#2f3d82" stroke="none" d="M 939.146362 1129.16748 C 943.020996 1129.16748 946.891602 1128.392578 949.991333 1126.071899 C 950.766235 1125.296997 951.541138 1125.296997 952.31604 1125.296997 C 953.091064 1125.296997 953.861816 1126.842651 953.091064 1129.16748 C 951.541138 1135.362793 949.991333 1140.787354 949.991333 1146.982666 C 949.991333 1148.532471 948.441406 1150.086548 946.891602 1150.086548 C 945.341675 1150.086548 945.341675 1149.307373 944.566772 1144.661987 C 943.796021 1136.141846 941.471191 1135.362793 932.176147 1135.362793 L 909.711426 1135.362793 C 908.940674 1135.362793 908.161621 1136.912598 908.161621 1137.691772 L 908.161621 1176.417603 C 908.161621 1194.232666 908.161621 1209.727173 908.940674 1215.147461 C 909.715576 1222.121948 910.486328 1224.442627 920.556274 1225.992432 C 922.881104 1226.767334 925.205933 1227.538086 925.205933 1229.088013 C 925.205933 1230.637939 922.106201 1230.637939 920.556274 1230.637939 C 919.01062 1230.637939 909.715576 1229.867188 902.741211 1229.867188 C 895.770996 1229.867188 886.475952 1230.637939 884.926025 1230.637939 C 881.826294 1230.637939 880.28064 1229.867188 880.28064 1229.088013 C 880.28064 1228.317261 881.826294 1226.767334 883.376221 1226.767334 C 894.221069 1224.442627 894.996094 1221.342773 894.996094 1209.727173 C 894.996094 1200.427979 895.770996 1168.672363 895.770996 1156.28186 L 895.770996 1137.691772 C 895.770996 1136.141846 894.996094 1135.362793 894.221069 1135.362793 C 891.121338 1134.592041 877.180908 1134.592041 874.856079 1134.592041 C 870.985596 1133.817139 866.33606 1135.362793 863.236328 1138.462524 C 860.915649 1140.787354 859.365723 1143.887085 857.815918 1146.982666 C 856.265991 1150.086548 855.491089 1150.086548 854.716187 1150.086548 C 853.941284 1150.086548 853.16626 1147.757568 853.16626 1146.211792 C 854.716187 1139.237427 855.491089 1132.267212 856.265991 1125.296997 C 856.265991 1123.74707 857.041016 1122.972168 858.59082 1122.972168 C 859.365723 1122.972168 859.365723 1123.74707 860.915649 1125.296997 C 862.461304 1126.842651 864.01123 1127.621826 866.33606 1128.392578 C 870.210693 1129.16748 882.601318 1129.16748 903.516113 1129.16748 C 911.261353 1129.946533 932.95105 1129.946533 939.146362 1129.16748"/>
    <path id="path14" fill="#2f3d82" stroke="none" d="M 1013.507446 1129.16748 C 1020.477661 1129.16748 1023.577393 1129.946533 1029.772705 1129.946533 L 1045.267212 1129.946533 C 1049.137695 1129.946533 1049.912598 1130.717407 1049.912598 1131.49646 C 1049.912598 1132.267212 1048.362793 1133.817139 1045.267212 1134.592041 C 1039.842651 1136.141846 1036.74292 1136.912598 1035.972168 1143.887085 C 1035.197266 1150.8573 1035.197266 1165.572632 1035.197266 1188.037354 C 1035.197266 1205.852539 1039.067749 1212.822754 1043.713135 1218.247314 C 1049.912598 1223.671875 1058.432739 1226.767334 1066.177856 1226.767334 C 1080.122559 1227.538086 1092.513184 1218.247314 1095.612915 1205.077637 C 1097.937622 1191.912109 1099.487549 1178.74231 1098.712646 1165.572632 C 1098.712646 1155.502686 1097.937622 1146.982666 1097.937622 1145.432739 C 1097.16272 1139.237427 1096.387817 1137.691772 1087.867676 1135.362793 C 1086.317871 1135.362793 1084.767944 1133.817139 1084.767944 1132.267212 C 1084.767944 1130.717407 1085.542847 1130.717407 1088.642578 1130.717407 C 1092.513184 1130.717407 1097.16272 1131.49646 1101.808105 1131.49646 L 1115.752808 1131.49646 C 1118.077637 1131.49646 1119.623291 1132.267212 1119.623291 1133.042114 C 1119.623291 1133.817139 1118.077637 1135.362793 1116.52771 1136.141846 C 1109.557495 1137.691772 1106.457764 1140.787354 1106.457764 1150.8573 C 1106.457764 1157.827515 1105.682861 1174.871826 1104.907837 1183.391968 C 1104.132935 1210.497925 1096.387817 1224.442627 1085.542847 1230.637939 C 1078.572632 1234.512451 1070.827515 1236.062378 1063.078125 1236.062378 C 1053.008179 1236.062378 1042.942383 1232.962646 1034.422363 1226.767334 C 1025.902222 1218.247314 1022.027588 1206.627441 1022.027588 1180.292236 C 1022.027588 1157.827515 1021.252563 1144.661987 1021.252563 1143.112061 C 1021.252563 1141.562256 1018.927856 1137.691772 1012.732544 1136.141846 C 1011.182617 1135.362793 1008.85791 1134.592041 1008.85791 1133.817139 C 1008.85791 1133.042114 1011.182617 1129.16748 1013.507446 1129.16748"/>
    <path id="path15" fill="#2f3d82" stroke="none" d="M 1263.69751 1129.16748 C 1267.572144 1129.16748 1271.442627 1128.392578 1274.542358 1126.071899 C 1275.317383 1125.296997 1276.092285 1125.296997 1276.867188 1125.296997 C 1277.64209 1125.296997 1278.412842 1126.842651 1277.64209 1129.16748 C 1276.092285 1135.362793 1274.542358 1140.787354 1274.542358 1146.982666 C 1274.542358 1148.532471 1272.992554 1150.086548 1271.442627 1150.086548 C 1269.892822 1150.086548 1269.892822 1149.307373 1269.11792 1144.661987 C 1268.347046 1136.141846 1266.022339 1135.362793 1256.727295 1135.362793 L 1234.262573 1135.362793 C 1231.937744 1135.362793 1232.712646 1136.912598 1232.712646 1137.691772 L 1232.712646 1176.417603 C 1232.712646 1194.232666 1232.712646 1209.727173 1233.491821 1215.147461 C 1234.262573 1222.121948 1235.037476 1224.442627 1245.107422 1225.992432 C 1247.432251 1226.767334 1249.75293 1227.538086 1249.75293 1229.088013 C 1249.75293 1230.637939 1246.657349 1230.637939 1245.107422 1230.637939 C 1243.557617 1230.637939 1234.262573 1229.867188 1227.292358 1229.867188 C 1220.322021 1229.867188 1211.0271 1230.637939 1209.477173 1230.637939 C 1207.927368 1230.637939 1204.831787 1229.867188 1204.831787 1229.088013 C 1204.831787 1228.317261 1206.377441 1226.767334 1207.927368 1226.767334 C 1218.772217 1224.442627 1219.547119 1221.342773 1219.547119 1209.727173 C 1219.547119 1200.427979 1220.322021 1168.672363 1220.322021 1156.28186 L 1220.322021 1137.691772 C 1220.322021 1136.141846 1219.547119 1135.362793 1218.772217 1135.362793 C 1215.672485 1134.592041 1201.732056 1134.592041 1199.407227 1134.592041 C 1195.532593 1133.817139 1190.887085 1135.362793 1187.787354 1138.462524 C 1185.466797 1140.787354 1183.91687 1143.887085 1182.367065 1146.982666 C 1180.817139 1150.086548 1180.042236 1150.086548 1179.267334 1150.086548 C 1178.49231 1150.086548 1177.717407 1147.757568 1177.717407 1146.211792 C 1179.267334 1139.237427 1180.042236 1132.267212 1180.817139 1125.296997 C 1180.817139 1123.74707 1181.592041 1122.972168 1183.141968 1122.972168 C 1183.91687 1122.972168 1183.91687 1123.74707 1185.466797 1125.296997 C 1187.012451 1126.842651 1188.562378 1127.621826 1190.887085 1128.392578 C 1194.761841 1129.16748 1207.152344 1129.16748 1228.067261 1129.16748 C 1235.812378 1129.946533 1256.727295 1129.946533 1263.69751 1129.16748"/>
    <path id="path16" fill="#2f3d82" stroke="none" d="M 1386.855591 1129.944458 C 1392.280151 1129.944458 1399.250366 1129.944458 1401.575195 1129.165405 C 1402.345947 1129.165405 1403.12085 1129.944458 1403.12085 1130.719482 L 1403.12085 1145.434814 C 1403.12085 1148.534546 1401.575195 1150.084473 1400.025269 1150.084473 C 1398.475464 1150.084473 1397.700439 1147.759644 1397.700439 1146.209717 C 1395.375732 1137.689697 1392.280151 1136.139771 1386.855591 1135.364868 C 1379.110474 1134.589966 1372.140259 1134.589966 1364.390869 1134.589966 C 1363.620117 1134.589966 1362.07019 1135.364868 1362.07019 1139.235352 C 1362.07019 1143.109985 1361.295288 1172.549194 1361.295288 1174.869751 C 1361.295288 1175.644653 1361.295288 1176.415527 1362.07019 1176.415527 L 1372.140259 1176.415527 C 1386.855591 1176.415527 1387.630493 1175.644653 1390.730225 1168.674438 C 1391.505249 1166.349731 1392.280151 1165.574707 1393.825806 1165.574707 C 1395.375732 1165.574707 1395.375732 1167.895386 1395.375732 1169.44519 C 1395.375732 1174.094849 1394.600708 1177.19458 1394.600708 1181.069214 C 1394.600708 1184.939697 1394.600708 1187.264526 1395.375732 1190.360107 C 1396.150635 1193.459839 1394.600708 1195.009766 1393.825806 1195.009766 C 1393.050903 1195.009766 1391.505249 1193.459839 1390.730225 1191.910034 C 1388.405518 1184.939697 1387.630493 1184.164795 1378.335449 1183.389893 L 1362.845215 1183.389893 C 1362.07019 1183.389893 1361.295288 1184.164795 1361.295288 1184.939697 C 1360.520386 1188.035278 1360.520386 1202.754883 1360.520386 1209.725098 C 1360.520386 1214.374756 1361.295288 1218.245117 1362.07019 1222.894775 C 1362.845215 1224.44458 1363.620117 1225.994507 1365.165771 1225.994507 C 1369.81543 1226.765381 1374.460815 1226.765381 1379.885376 1226.765381 C 1384.530762 1226.765381 1389.955322 1226.765381 1394.600708 1225.994507 C 1400.800171 1224.44458 1405.445679 1219.795044 1407.770508 1214.374756 C 1409.320313 1210.5 1410.095215 1209.725098 1411.640991 1209.725098 C 1413.190796 1209.725098 1413.190796 1212.049927 1413.190796 1213.599854 C 1411.640991 1219.020142 1410.095215 1225.215454 1407.770508 1230.639893 C 1406.995483 1231.410645 1406.220581 1232.189819 1404.670776 1232.189819 C 1403.12085 1232.189819 1379.110474 1230.639893 1353.550171 1230.639893 C 1345.025879 1230.639893 1341.930298 1231.410645 1335.730835 1231.410645 C 1332.635254 1231.410645 1331.085449 1231.410645 1331.085449 1229.090088 C 1331.085449 1226.765381 1332.635254 1227.540283 1335.730835 1226.765381 C 1343.480225 1225.215454 1346.579956 1223.669678 1347.354858 1215.145508 C 1348.12561 1208.950195 1348.900513 1190.360107 1348.900513 1170.220215 L 1348.900513 1143.88916 C 1348.900513 1136.914673 1347.354858 1135.364868 1340.380493 1133.819214 C 1337.284912 1133.040039 1335.730835 1132.269287 1335.730835 1131.494385 C 1335.730835 1130.719482 1338.055664 1129.165405 1340.380493 1129.165405 C 1348.12561 1129.165405 1354.320923 1129.944458 1364.390869 1129.944458 Z"/>
    <path id="path17" fill="#2ab4c6" stroke="none" d="M 532.072449 417.796265 L 621.793823 343.256958 L 688.625549 428.191284 C 688.638062 428.266235 688.621399 428.341187 688.638062 428.41626 L 697.104004 469.35437 C 695.349976 471.12915 694.420898 473.553955 694.833374 476.441284 C 694.862549 476.657837 694.929199 476.85376 694.970825 477.062012 L 617.306763 574.653564 Z M 832.708923 473.341553 L 842.003967 429.191162 C 842.378967 428.253784 842.516418 427.316284 842.483093 426.403931 L 906.898376 344.544312 L 996.003174 419.725342 L 911.272949 573.653687 Z M 658.719849 247.265259 C 663.96936 248.135986 668.952271 249.381714 673.918518 251.035767 C 677.01825 252.585571 681.663696 254.9104 685.53833 257.231079 C 690.183777 259.555786 695.608276 261.880615 700.253723 264.205444 C 704.128418 264.980347 708.773804 264.980347 713.423401 264.980347 L 718.843811 264.980347 C 715.74408 276.596069 708.773804 301.385498 704.128418 316.875854 C 695.608276 345.535889 694.833374 349.406372 694.833374 352.506104 C 694.833374 357.926514 694.833374 361.801147 745.953918 387.36145 L 700.16626 414.296631 L 632.572083 328.395752 Z M 643.304504 227.996094 L 544.721313 216.913696 L 656.77417 138.962036 Z M 885.154419 228.629395 L 872.184692 139.028687 L 984.087524 218.092773 Z M 828.71344 413.579956 L 785.458862 388.136353 C 836.579407 362.57605 836.579407 358.701416 836.579407 353.281006 C 836.579407 350.181274 835.804504 346.310791 827.284424 317.650757 C 822.638977 302.160522 815.668762 277.370972 812.56897 265.751099 L 818.768494 265.751099 C 823.41394 266.526001 827.284424 265.751099 831.934021 264.980347 C 837.35437 262.655518 842.003967 260.330811 846.649414 258.005981 C 850.524048 255.685303 855.169495 253.360474 858.269226 251.810669 C 862.58551 250.373291 866.922668 249.269165 871.418091 248.423462 L 896.01593 328.045776 Z M 764.544006 466.371338 L 762.994141 466.371338 L 716.364868 466.371338 L 709.548767 432.290894 L 767.139648 398.452148 L 823.41394 431.511841 L 816.443665 466.371338 Z M 998.611267 398.106323 L 914.814331 326.945801 L 889.479065 246.148682 L 999.977783 234.383057 Z M 761.448425 128.650513 L 762.994141 128.650513 C 763.823242 128.533813 764.602356 128.321289 765.343933 128.062988 C 766.060547 128.321289 766.814636 128.533813 767.643738 128.650513 L 852.461426 128.650513 L 867.835083 230.924927 C 862.156372 232.062378 856.573547 233.624756 851.299011 235.54541 C 847.424316 237.091064 842.77887 239.420044 838.129272 241.740723 C 834.258789 243.290527 830.384155 245.615356 826.50946 247.161011 L 818.768494 247.161011 C 808.698547 247.161011 797.849487 247.161011 794.753906 255.685303 C 793.204041 260.330811 793.204041 263.430542 810.244202 322.300415 C 813.343933 332.366211 816.443665 343.21106 817.98938 349.406372 C 809.185974 355.276733 786.483765 367.396484 765.681396 377.220703 C 745.328979 367.446533 723.610046 355.189209 715.74408 350.181274 C 717.298096 343.986084 720.393677 333.141113 723.493408 323.071167 C 740.533569 264.205444 740.533569 261.105713 738.983704 256.456055 C 735.883972 247.936035 725.039124 247.936035 714.969116 247.936035 L 707.228149 247.936035 C 704.90332 247.161011 700.253723 245.615356 695.608276 242.515625 C 690.95874 239.420044 686.313293 237.091064 682.438599 235.54541 C 676.001648 233.203979 669.127258 231.3125 662.140381 230.1875 L 677.40155 128.650513 Z M 529.776794 396.827271 L 529.093506 233.195557 L 639.196533 244.990356 L 613.498718 326.945801 Z M 762.935791 693.097534 L 630.068115 589.602295 L 714.644165 484.961304 L 762.148376 484.961304 C 762.910828 485.052979 763.702393 485.078003 764.544006 484.961304 L 818.880981 484.961304 L 900.186462 588.181641 Z M 1017.059631 419.121216 L 1018.517883 230.741699 C 1020.838501 228.325195 1021.996765 224.796265 1020.930176 221.60083 C 1019.742798 218.038574 1016.276428 215.405518 1012.626709 215.063843 L 863.693787 110.060425 L 860.94812 110.060425 C 860.048218 109.947876 859.148315 109.914551 858.269226 110.060425 L 767.643738 110.060425 C 767.014648 110.168701 766.485535 110.418701 765.914734 110.610352 C 764.593994 110.064575 763.102478 109.827148 761.448425 110.060425 L 670.818787 110.060425 C 669.968872 109.939575 669.143921 109.96875 668.343994 110.060425 L 665.398438 110.060425 L 510.482635 218.505249 L 511.257568 418.346313 L 607.303406 595.726746 L 757.573792 712.6875 C 759.123657 713.462463 760.673523 714.237366 762.994141 714.237366 C 763.727417 714.237366 764.439819 714.133179 765.127319 713.979004 C 765.189758 713.962402 765.248108 713.941528 765.310608 713.924927 C 765.798096 713.808228 766.243896 713.649902 766.656311 713.44989 C 768.102051 712.849976 769.431091 712.012512 770.743469 711.137634 C 771.197632 710.566833 771.547546 709.937744 771.835022 709.28363 L 916.347534 598.122375 C 917.026672 597.868225 917.609924 597.576599 917.914063 597.272461 C 918.439026 596.855835 918.897339 596.364197 919.305603 595.843445 L 919.459778 595.726746 L 919.85553 595.014343 C 920.055542 594.689331 920.243042 594.36853 920.405518 594.022766 Z"/>
</svg>
